<?xml version="1.0" encoding="UTF-8" standalone="no"?>
<!-- Created with Inkscape (http://www.inkscape.org/) -->

<svg
   width="32.339779mm"
   height="32.339779mm"
   viewBox="0 0 32.617315 32.339778"
   version="1.1"
   id="svg5"
   inkscape:version="1.1 (ce6663b3b7, 2021-05-25)"
   sodipodi:docname="movr.svg"
   inkscape:export-filename="/home/luke/Documents/boss.png"
   inkscape:export-xdpi="56.685009"
   inkscape:export-ydpi="56.685009"
   xmlns:inkscape="http://www.inkscape.org/namespaces/inkscape"
   xmlns:sodipodi="http://sodipodi.sourceforge.net/DTD/sodipodi-0.dtd"
   xmlns:xlink="http://www.w3.org/1999/xlink"
   xmlns="http://www.w3.org/2000/svg"
   xmlns:svg="http://www.w3.org/2000/svg">
  <sodipodi:namedview
     id="namedview7"
     pagecolor="#ffffff"
     bordercolor="#666666"
     borderopacity="1.0"
     inkscape:pageshadow="2"
     inkscape:pageopacity="0.0"
     inkscape:pagecheckerboard="0"
     inkscape:document-units="mm"
     showgrid="false"
     fit-margin-top="0"
     fit-margin-left="0"
     fit-margin-right="0"
     fit-margin-bottom="0"
     inkscape:zoom="3.9912249"
     inkscape:cx="-3.1318706"
     inkscape:cy="67.022031"
     inkscape:window-width="1920"
     inkscape:window-height="964"
     inkscape:window-x="0"
     inkscape:window-y="0"
     inkscape:window-maximized="1"
     inkscape:current-layer="g12557" />
  <defs
     id="defs2">
    <linearGradient
       inkscape:collect="always"
       id="linearGradient22107">
      <stop
         style="stop-color:#000000;stop-opacity:1;"
         offset="0"
         id="stop22103" />
      <stop
         style="stop-color:#000000;stop-opacity:0;"
         offset="1"
         id="stop22105" />
    </linearGradient>
    <marker
       style="overflow:visible"
       id="Arrow1Lstart"
       refX="0"
       refY="0"
       orient="auto"
       inkscape:stockid="Arrow1Lstart"
       inkscape:isstock="true">
      <path
         transform="matrix(0.8,0,0,0.8,10,0)"
         style="fill:context-stroke;fill-rule:evenodd;stroke:context-stroke;stroke-width:1pt"
         d="M 0,0 5,-5 -12.5,0 5,5 Z"
         id="path20339" />
    </marker>
    <radialGradient
       inkscape:collect="always"
       xlink:href="#linearGradient22107"
       id="radialGradient37303"
       cx="133.78577"
       cy="127.13072"
       fx="133.78577"
       fy="127.13072"
       r="68.446053"
       gradientTransform="matrix(1,0,0,0.18190334,0,104.00521)"
       gradientUnits="userSpaceOnUse" />
  </defs>
  <g
     inkscape:label="Layer 1"
     inkscape:groupmode="layer"
     id="layer1"
     transform="translate(-0.05735354,-128.12571)">
    <g
       id="g12612"
       transform="matrix(0.05323297,0,0,0.05323297,35.119811,117.09274)"
       style="fill:#2a9999;fill-opacity:1">
      <g
         id="g12557"
         style="fill:#2a9999;fill-opacity:1">
        <circle
           style="fill:#f9f9f9;stroke-width:6.17664;paint-order:stroke fill markers"
           id="path207"
           cx="-352.29669"
           cy="511.52805"
           r="306.36386" />
        <g
           id="g3046"
           transform="matrix(1.3339899,0,0,1.3339899,-519.42825,299.91323)">
          <path
             class="st0"
             d="m 18,188.2 c -3.6,0 -6.5,2.9 -6.5,6.5 v 55.8 c 0,3.6 2.9,6.5 6.5,6.5 3.6,0 6.5,-2.9 6.5,-6.5 v -55.8 c -0.1,-3.6 -3,-6.5 -6.5,-6.5 z M 48.1,170 c -3.6,0 -6.5,2.9 -6.5,6.5 v 79.3 c 0,3.6 2.9,6.5 6.5,6.5 3.6,0 6.5,-2.9 6.5,-6.5 v -79.3 c 0,-3.6 -2.9,-6.5 -6.5,-6.5 z m 30.2,-8.1 c -3.6,0 -6.5,2.9 -6.5,6.5 v 157.9 c 0,3.6 2.9,6.5 6.5,6.5 3.6,0 6.5,-2.9 6.5,-6.5 v -158 c 0,-3.5 -2.9,-6.4 -6.5,-6.4 z m 30.2,11.9 c -3.6,0 -6.5,2.9 -6.5,6.5 v 62.4 c 0,3.6 2.9,6.5 6.5,6.5 3.6,0 6.5,-2.9 6.5,-6.5 v -62.4 c -0.1,-3.6 -3,-6.5 -6.5,-6.5 z m 30.1,17.7 c -3.6,0 -6.5,2.9 -6.5,6.5 v 17.3 c 0,3.6 2.9,6.5 6.5,6.5 3.6,0 6.5,-2.9 6.5,-6.5 V 198 c 0,-3.6 -2.9,-6.5 -6.5,-6.5 z m 30.2,10 c -3.6,0 -6.5,2.9 -6.5,6.5 v 86.1 c 0,3.6 2.9,6.5 6.5,6.5 3.6,0 6.5,-2.9 6.5,-6.5 V 208 c 0,-3.6 -2.9,-6.5 -6.5,-6.5 z m 30.2,1 c -3.6,0 -6.5,2.9 -6.5,6.5 v 78.2 c 0,3.6 2.9,6.5 6.5,6.5 3.6,0 6.5,-2.9 6.5,-6.5 V 209 c -0.1,-3.6 -3,-6.5 -6.5,-6.5 z m 30.1,-6.2 c -3.6,0 -6.5,2.9 -6.5,6.5 v 39.1 c 0,3.6 2.9,6.5 6.5,6.5 3.6,0 6.5,-2.9 6.5,-6.5 v -39.1 c 0,-3.6 -2.9,-6.5 -6.5,-6.5 z"
             id="path2069"
             style="fill:#53cbc9;fill-opacity:1" />
          <path
             class="st0"
             d="m 251.1,162.2 c -2,-2.9 -6.1,-3.7 -9,-1.6 -35.2,24.3 -77.1,24.3 -112.3,0 -39.8,-27.5 -87.3,-27.5 -127,0 -2.9,2 -3.7,6.1 -1.6,9 2,2.9 6.1,3.7 9,1.6 35.2,-24.3 77.1,-24.3 112.3,0 19.9,13.8 41.7,20.6 63.5,20.6 21.8,0 43.6,-6.9 63.5,-20.6 2.9,-2 3.7,-6 1.6,-9 z"
             id="path2071"
             style="fill:#53cbc9;fill-opacity:1" />
          <path
             class="st0"
             d="m 137.2,149.9 c 31,21.5 66.6,21.5 97.6,0 0.2,-0.1 0.4,-0.3 0.6,-0.4 0.5,-0.3 4.3,-2.7 10.5,-6.2 1.1,-6.6 1.8,-13.3 1.8,-20.2 C 247.7,55.1 192.5,0 124.5,0 56.5,0 1.4,55.1 1.4,123.1 c 0,7.4 0.8,14.6 2,21.7 42.7,-25.4 92,-23.7 133.8,5.1 z"
             id="path2073"
             style="fill:#f2b705;fill-opacity:1" />
        </g>
      </g>
      <g
         id="g12559"
         style="fill:#2a9999;fill-opacity:1" />
      <g
         id="g12561"
         style="fill:#2a9999;fill-opacity:1" />
      <g
         id="g12563"
         style="fill:#2a9999;fill-opacity:1" />
      <g
         id="g12565"
         style="fill:#2a9999;fill-opacity:1" />
      <g
         id="g12567"
         style="fill:#2a9999;fill-opacity:1" />
      <g
         id="g12569"
         style="fill:#2a9999;fill-opacity:1" />
      <g
         id="g12571"
         style="fill:#2a9999;fill-opacity:1" />
      <g
         id="g12573"
         style="fill:#2a9999;fill-opacity:1" />
      <g
         id="g12575"
         style="fill:#2a9999;fill-opacity:1" />
      <g
         id="g12577"
         style="fill:#2a9999;fill-opacity:1" />
      <g
         id="g12579"
         style="fill:#2a9999;fill-opacity:1" />
      <g
         id="g12581"
         style="fill:#2a9999;fill-opacity:1" />
      <g
         id="g12583"
         style="fill:#2a9999;fill-opacity:1" />
      <g
         id="g12585"
         style="fill:#2a9999;fill-opacity:1" />
      <g
         id="g12587"
         style="fill:#2a9999;fill-opacity:1" />
    </g>
  </g>
</svg>
