<?xml version="1.0" encoding="UTF-8" standalone="no"?>
<svg
   width="32.339779mm"
   height="32.339779mm"
   viewBox="0 0 32.617315 32.339778"
   version="1.1"
   xmlns="http://www.w3.org/2000/svg">
  <g transform="translate(-0.05735354,-128.12571)">
    <g
       transform="matrix(0.05323297,0,0,0.05323297,35.119811,117.09274)"
       style="fill:#2a9999;fill-opacity:1">
      <g
         id="g12557"
         style="fill:#2a9999;fill-opacity:1">
        <circle
           style="fill:#a72e2e;stroke-width:6.17664;paint-order:stroke fill markers"
           id="path207"
           cx="-352.29669"
           cy="511.52805"
           r="306.36386" />
        <path
           d="m -297.08632,483.71065 c 1.33357,1.03895 2.96325,1.55917 4.59291,1.55917 0.37032,0 0.74063,0 1.11094,-0.0742 1.99999,-0.29684 3.85229,-1.41075 4.96322,-3.04339 l 69.04431,-98.43626 c 2.0742,-2.96918 1.70388,-7.05226 -0.88905,-9.57618 l -23.03876,-22.64247 c -2.66714,-2.59812 -6.81552,-2.82076 -9.77877,-0.51948 l -95.19547,75.05168 -95.19548,-75.05168 c -2.96323,-2.30128 -7.11162,-2.07864 -9.77876,0.51948 l -23.0395,22.64174 c -2.59293,2.52391 -2.96325,6.60699 -0.88905,9.57617 l 69.04431,98.43626 c 1.18514,1.63338 2.96323,2.74654 4.96322,3.04338 1.99998,0.29685 4.07418,-0.22262 5.63037,-1.48496 l 15.85368,-12.54608 25.26211,30.8079 -52.74611,154.48402 c -0.96325,2.89496 -0.0742,6.16173 2.22262,8.09195 l 54.07968,45.28347 c 1.40778,1.18812 3.03745,1.7076 4.74134,1.7076 1.70387,0 3.40775,-0.59369 4.81554,-1.78181 l 53.48748,-45.28347 c 2.29682,-2.00444 3.18587,-5.19625 2.22262,-8.01774 l -52.15466,-154.55749 24.74338,-30.73369 z m -48.96803,5.04783 -21.92856,-26.72482 21.63172,-17.07443 21.70594,17.14864 z"
           id="path12553"
           style="fill:#ffffff;fill-opacity:1;stroke-width:0.742108;paint-order:stroke fill markers"
        />
      </g>
      <g
         id="g12559"
         style="fill:#2a9999;fill-opacity:1" />
      <g
         id="g12561"
         style="fill:#2a9999;fill-opacity:1" />
      <g
         id="g12563"
         style="fill:#2a9999;fill-opacity:1" />
      <g
         id="g12565"
         style="fill:#2a9999;fill-opacity:1" />
      <g
         id="g12567"
         style="fill:#2a9999;fill-opacity:1" />
      <g
         id="g12569"
         style="fill:#2a9999;fill-opacity:1" />
      <g
         id="g12571"
         style="fill:#2a9999;fill-opacity:1" />
      <g
         id="g12573"
         style="fill:#2a9999;fill-opacity:1" />
      <g
         id="g12575"
         style="fill:#2a9999;fill-opacity:1" />
      <g
         id="g12577"
         style="fill:#2a9999;fill-opacity:1" />
      <g
         id="g12579"
         style="fill:#2a9999;fill-opacity:1" />
      <g
         id="g12581"
         style="fill:#2a9999;fill-opacity:1" />
      <g
         id="g12583"
         style="fill:#2a9999;fill-opacity:1" />
      <g
         id="g12585"
         style="fill:#2a9999;fill-opacity:1" />
      <g
         id="g12587"
         style="fill:#2a9999;fill-opacity:1" />
    </g>
  </g>
</svg>
